<?xml version="1.0" encoding="UTF-8"?>\n<svg xmlns="http://www.w3.org/2000/svg" width="900" height="540" viewBox="0 0 900 540">\n<rect width="100%" height="100%" fill="#ffffff"/>\n<rect x="60" y="60" width="780" height="420" fill="#fafafa" stroke="#d0d0d0"/>\n<text x="60" y="40" font-family="sans-serif" font-size="16" fill="#222">Snappy Compress Overhead sfi/mem1 (log-log)</text>\n<text x="60" y="56" font-family="sans-serif" font-size="12" fill="#444">geomean ratio: 1.393 (+39.28%)</text>\n<line x1="60" y1="480.00" x2="840" y2="480.00" stroke="#e6e6e6"/>\n<text x="50" y="484.00" font-family="sans-serif" font-size="11" fill="#555" text-anchor="end">0.878</text>\n<line x1="60" y1="410.00" x2="840" y2="410.00" stroke="#e6e6e6"/>\n<text x="50" y="414.00" font-family="sans-serif" font-size="11" fill="#555" text-anchor="end">1.044</text>\n<line x1="60" y1="340.00" x2="840" y2="340.00" stroke="#e6e6e6"/>\n<text x="50" y="344.00" font-family="sans-serif" font-size="11" fill="#555" text-anchor="end">1.240</text>\n<line x1="60" y1="270.00" x2="840" y2="270.00" stroke="#e6e6e6"/>\n<text x="50" y="274.00" font-family="sans-serif" font-size="11" fill="#555" text-anchor="end">1.474</text>\n<line x1="60" y1="200.00" x2="840" y2="200.00" stroke="#e6e6e6"/>\n<text x="50" y="204.00" font-family="sans-serif" font-size="11" fill="#555" text-anchor="end">1.752</text>\n<line x1="60" y1="130.00" x2="840" y2="130.00" stroke="#e6e6e6"/>\n<text x="50" y="134.00" font-family="sans-serif" font-size="11" fill="#555" text-anchor="end">2.082</text>\n<line x1="60" y1="60.00" x2="840" y2="60.00" stroke="#e6e6e6"/>\n<text x="50" y="64.00" font-family="sans-serif" font-size="11" fill="#555" text-anchor="end">2.474</text>\n<line x1="60.00" y1="60" x2="60.00" y2="480" stroke="#f0f0f0"/>\n<text x="60.00" y="498" font-family="sans-serif" font-size="11" fill="#555" text-anchor="middle">2<tspan baseline-shift="super" font-size="8">0</tspan><tspan x="60.00" dy="12" font-size="10">1B</tspan><tspan x="60.00" dy="12" font-size="10" fill="#777">-8.6%</tspan></text>\n<line x1="97.14" y1="60" x2="97.14" y2="480" stroke="#f0f0f0"/>\n<text x="97.14" y="498" font-family="sans-serif" font-size="11" fill="#555" text-anchor="middle">2<tspan baseline-shift="super" font-size="8">1</tspan><tspan x="97.14" dy="12" font-size="10">2B</tspan><tspan x="97.14" dy="12" font-size="10" fill="#777">-9.4%</tspan></text>\n<line x1="134.29" y1="60" x2="134.29" y2="480" stroke="#f0f0f0"/>\n<text x="134.29" y="498" font-family="sans-serif" font-size="11" fill="#555" text-anchor="middle">2<tspan baseline-shift="super" font-size="8">2</tspan><tspan x="134.29" dy="12" font-size="10">4B</tspan><tspan x="134.29" dy="12" font-size="10" fill="#777">-8.3%</tspan></text>\n<line x1="171.43" y1="60" x2="171.43" y2="480" stroke="#f0f0f0"/>\n<text x="171.43" y="498" font-family="sans-serif" font-size="11" fill="#555" text-anchor="middle">2<tspan baseline-shift="super" font-size="8">3</tspan><tspan x="171.43" dy="12" font-size="10">8B</tspan><tspan x="171.43" dy="12" font-size="10" fill="#777">-12.2%</tspan></text>\n<line x1="208.57" y1="60" x2="208.57" y2="480" stroke="#f0f0f0"/>\n<text x="208.57" y="498" font-family="sans-serif" font-size="11" fill="#555" text-anchor="middle">2<tspan baseline-shift="super" font-size="8">4</tspan><tspan x="208.57" dy="12" font-size="10">16B</tspan><tspan x="208.57" dy="12" font-size="10" fill="#777">-11.4%</tspan></text>\n<line x1="245.71" y1="60" x2="245.71" y2="480" stroke="#f0f0f0"/>\n<text x="245.71" y="498" font-family="sans-serif" font-size="11" fill="#555" text-anchor="middle">2<tspan baseline-shift="super" font-size="8">5</tspan><tspan x="245.71" dy="12" font-size="10">32B</tspan><tspan x="245.71" dy="12" font-size="10" fill="#777">-7.4%</tspan></text>\n<line x1="282.86" y1="60" x2="282.86" y2="480" stroke="#f0f0f0"/>\n<text x="282.86" y="498" font-family="sans-serif" font-size="11" fill="#555" text-anchor="middle">2<tspan baseline-shift="super" font-size="8">6</tspan><tspan x="282.86" dy="12" font-size="10">64B</tspan><tspan x="282.86" dy="12" font-size="10" fill="#777">-4.3%</tspan></text>\n<line x1="320.00" y1="60" x2="320.00" y2="480" stroke="#f0f0f0"/>\n<text x="320.00" y="498" font-family="sans-serif" font-size="11" fill="#555" text-anchor="middle">2<tspan baseline-shift="super" font-size="8">7</tspan><tspan x="320.00" dy="12" font-size="10">128B</tspan><tspan x="320.00" dy="12" font-size="10" fill="#777">-1.6%</tspan></text>\n<line x1="357.14" y1="60" x2="357.14" y2="480" stroke="#f0f0f0"/>\n<text x="357.14" y="498" font-family="sans-serif" font-size="11" fill="#555" text-anchor="middle">2<tspan baseline-shift="super" font-size="8">8</tspan><tspan x="357.14" dy="12" font-size="10">256B</tspan><tspan x="357.14" dy="12" font-size="10" fill="#777">+1.9%</tspan></text>\n<line x1="394.29" y1="60" x2="394.29" y2="480" stroke="#f0f0f0"/>\n<text x="394.29" y="498" font-family="sans-serif" font-size="11" fill="#555" text-anchor="middle">2<tspan baseline-shift="super" font-size="8">9</tspan><tspan x="394.29" dy="12" font-size="10">512B</tspan><tspan x="394.29" dy="12" font-size="10" fill="#777">+6.9%</tspan></text>\n<line x1="431.43" y1="60" x2="431.43" y2="480" stroke="#f0f0f0"/>\n<text x="431.43" y="498" font-family="sans-serif" font-size="11" fill="#555" text-anchor="middle">2<tspan baseline-shift="super" font-size="8">10</tspan><tspan x="431.43" dy="12" font-size="10">1KB</tspan><tspan x="431.43" dy="12" font-size="10" fill="#777">+16.3%</tspan></text>\n<line x1="468.57" y1="60" x2="468.57" y2="480" stroke="#f0f0f0"/>\n<text x="468.57" y="498" font-family="sans-serif" font-size="11" fill="#555" text-anchor="middle">2<tspan baseline-shift="super" font-size="8">11</tspan><tspan x="468.57" dy="12" font-size="10">2KB</tspan><tspan x="468.57" dy="12" font-size="10" fill="#777">+32.2%</tspan></text>\n<line x1="505.71" y1="60" x2="505.71" y2="480" stroke="#f0f0f0"/>\n<text x="505.71" y="498" font-family="sans-serif" font-size="11" fill="#555" text-anchor="middle">2<tspan baseline-shift="super" font-size="8">12</tspan><tspan x="505.71" dy="12" font-size="10">4KB</tspan><tspan x="505.71" dy="12" font-size="10" fill="#777">+52.3%</tspan></text>\n<line x1="542.86" y1="60" x2="542.86" y2="480" stroke="#f0f0f0"/>\n<text x="542.86" y="498" font-family="sans-serif" font-size="11" fill="#555" text-anchor="middle">2<tspan baseline-shift="super" font-size="8">13</tspan><tspan x="542.86" dy="12" font-size="10">8KB</tspan><tspan x="542.86" dy="12" font-size="10" fill="#777">+69.4%</tspan></text>\n<line x1="580.00" y1="60" x2="580.00" y2="480" stroke="#f0f0f0"/>\n<text x="580.00" y="498" font-family="sans-serif" font-size="11" fill="#555" text-anchor="middle">2<tspan baseline-shift="super" font-size="8">14</tspan><tspan x="580.00" dy="12" font-size="10">16KB</tspan><tspan x="580.00" dy="12" font-size="10" fill="#777">+93.6%</tspan></text>\n<line x1="617.14" y1="60" x2="617.14" y2="480" stroke="#f0f0f0"/>\n<text x="617.14" y="498" font-family="sans-serif" font-size="11" fill="#555" text-anchor="middle">2<tspan baseline-shift="super" font-size="8">15</tspan><tspan x="617.14" dy="12" font-size="10">32KB</tspan><tspan x="617.14" dy="12" font-size="10" fill="#777">+108.8%</tspan></text>\n<line x1="654.29" y1="60" x2="654.29" y2="480" stroke="#f0f0f0"/>\n<text x="654.29" y="498" font-family="sans-serif" font-size="11" fill="#555" text-anchor="middle">2<tspan baseline-shift="super" font-size="8">16</tspan><tspan x="654.29" dy="12" font-size="10">64KB</tspan><tspan x="654.29" dy="12" font-size="10" fill="#777">+115.2%</tspan></text>\n<line x1="691.43" y1="60" x2="691.43" y2="480" stroke="#f0f0f0"/>\n<text x="691.43" y="498" font-family="sans-serif" font-size="11" fill="#555" text-anchor="middle">2<tspan baseline-shift="super" font-size="8">17</tspan><tspan x="691.43" dy="12" font-size="10">128KB</tspan><tspan x="691.43" dy="12" font-size="10" fill="#777">+144.1%</tspan></text>\n<line x1="728.57" y1="60" x2="728.57" y2="480" stroke="#f0f0f0"/>\n<text x="728.57" y="498" font-family="sans-serif" font-size="11" fill="#555" text-anchor="middle">2<tspan baseline-shift="super" font-size="8">18</tspan><tspan x="728.57" dy="12" font-size="10">256KB</tspan><tspan x="728.57" dy="12" font-size="10" fill="#777">+145.5%</tspan></text>\n<line x1="765.71" y1="60" x2="765.71" y2="480" stroke="#f0f0f0"/>\n<text x="765.71" y="498" font-family="sans-serif" font-size="11" fill="#555" text-anchor="middle">2<tspan baseline-shift="super" font-size="8">19</tspan><tspan x="765.71" dy="12" font-size="10">512KB</tspan><tspan x="765.71" dy="12" font-size="10" fill="#777">+147.4%</tspan></text>\n<line x1="802.86" y1="60" x2="802.86" y2="480" stroke="#f0f0f0"/>\n<text x="802.86" y="498" font-family="sans-serif" font-size="11" fill="#555" text-anchor="middle">2<tspan baseline-shift="super" font-size="8">20</tspan><tspan x="802.86" dy="12" font-size="10">1MB</tspan><tspan x="802.86" dy="12" font-size="10" fill="#777">+131.8%</tspan></text>\n<line x1="840.00" y1="60" x2="840.00" y2="480" stroke="#f0f0f0"/>\n<text x="840.00" y="498" font-family="sans-serif" font-size="11" fill="#555" text-anchor="middle">2<tspan baseline-shift="super" font-size="8">21</tspan><tspan x="840.00" dy="12" font-size="10">2MB</tspan><tspan x="840.00" dy="12" font-size="10" fill="#777">+120.2%</tspan></text>\n<circle cx="60.00" cy="463.93" r="3" fill="#1b7f5a"/>\n<circle cx="97.14" cy="467.44" r="3" fill="#1b7f5a"/>\n<circle cx="134.29" cy="462.69" r="3" fill="#1b7f5a"/>\n<circle cx="171.43" cy="480.00" r="3" fill="#1b7f5a"/>\n<circle cx="208.57" cy="476.53" r="3" fill="#1b7f5a"/>\n<circle cx="245.71" cy="458.41" r="3" fill="#1b7f5a"/>\n<circle cx="282.86" cy="445.36" r="3" fill="#1b7f5a"/>\n<circle cx="320.00" cy="433.97" r="3" fill="#1b7f5a"/>\n<circle cx="357.14" cy="419.70" r="3" fill="#1b7f5a"/>\n<circle cx="394.29" cy="400.50" r="3" fill="#1b7f5a"/>\n<circle cx="431.43" cy="366.22" r="3" fill="#1b7f5a"/>\n<circle cx="468.57" cy="314.05" r="3" fill="#1b7f5a"/>\n<circle cx="505.71" cy="256.91" r="3" fill="#1b7f5a"/>\n<circle cx="542.86" cy="213.57" r="3" fill="#1b7f5a"/>\n<circle cx="580.00" cy="159.53" r="3" fill="#1b7f5a"/>\n<circle cx="617.14" cy="128.92" r="3" fill="#1b7f5a"/>\n<circle cx="654.29" cy="116.55" r="3" fill="#1b7f5a"/>\n<circle cx="691.43" cy="65.41" r="3" fill="#1b7f5a"/>\n<circle cx="728.57" cy="63.23" r="3" fill="#1b7f5a"/>\n<circle cx="765.71" cy="60.00" r="3" fill="#1b7f5a"/>\n<circle cx="802.86" cy="86.41" r="3" fill="#1b7f5a"/>\n<circle cx="840.00" cy="107.33" r="3" fill="#1b7f5a"/>\n<polyline fill="none" stroke="#1b7f5a" stroke-width="2" points="60.00,463.93 97.14,467.44 134.29,462.69 171.43,480.00 208.57,476.53 245.71,458.41 282.86,445.36 320.00,433.97 357.14,419.70 394.29,400.50 431.43,366.22 468.57,314.05 505.71,256.91 542.86,213.57 580.00,159.53 617.14,128.92 654.29,116.55 691.43,65.41 728.57,63.23 765.71,60.00 802.86,86.41 840.00,107.33"/>\n<text x="60" y="530" font-family="sans-serif" font-size="11" fill="#666">x: input size (2^n, bytes), y: mem1/mem0 (log10)</text>\n</svg>